<svg width="220.883" height="35.1947" xmlns="http://www.w3.org/2000/svg">
 <defs>
  <style type="text/css">
   <![CDATA[
    .fil0 {fill:white}
    .fil1 {fill:#EB8D1C}
    .fil2 {fill:#EB8D1C;fill-rule:nonzero}
   ]]>
  </style>
 </defs>
 <g>
  <title>background</title>
  <rect fill="none" id="canvas_background" height="402" width="582" y="-1" x="-1"/>
 </g>
 <g>
  <title>Layer 1</title>
  <g id="Слой_x0020_1">
   <metadata id="CorelCorpID_0Corel-Layer"/>
   <g id="_120688912">
    <g id="svg_1">
     <polygon points="0,20.4475 20.2671,32.6728 28.0183,29.4787 13.2153,18.4133 27.9398,3.04757 20.2531,1.94814 " class="fil0" id="_120700888"/>
     <path d="m28.5296,33.804l5.04445,-2.67137l3.9462,-24.1806l-4.2255,-0.46697l-4.76515,27.319l0,-0.00006zm9.43719,-29.58604l0.58926,-3.61173l-4.13007,-0.60619l-0.65493,3.75416l4.19573,0.46376l0.00001,0z" class="fil1" id="_120709168"/>
     <polygon points="40.4712,4.43389 43.9189,4.81564 48.4296,13.1423 43.8506,22.8323 40.5065,24.2373 45.9181,13.5874 " class="fil0" id="_120699280"/>
    </g>
    <path d="m57.1304,22.1732l0,-15.2308l2.49363,0l0,15.2308l-2.49363,0zm0,-21.2673l2.49363,0l0,2.49392l-2.49363,0l0,-2.49392zm8.46998,7.93559c0.18299,-0.26267 0.39547,-0.51775 0.64354,-0.71622c1.10059,-0.90417 2.52252,-1.1829 3.91438,-1.1829l2.96293,0c1.38311,0 2.94309,0.18592 4.13941,0.92957l0.02364,0.01663l0.01518,0.01781c0.50579,0.61406 1.01187,1.22843 1.51999,1.84103c0.18533,-0.45676 0.43574,-0.93161 0.78422,-1.28008c1.25878,-1.23397 3.20021,-1.52495 4.89123,-1.52495l3.38554,0c1.78062,0 3.56562,0.387 4.94347,1.57778c1.15926,0.98939 1.75114,2.24788 1.75114,3.774l0,9.87906l-2.49392,0l0,-9.45675c0,-1.07549 -0.34497,-2.00389 -1.20624,-2.68071c-0.97393,-0.76525 -2.31793,-0.96167 -3.52271,-0.96167l-2.23358,0c-1.26987,0 -2.71048,0.19496 -3.75182,0.97889c-0.96021,0.72263 -1.27921,1.80484 -1.27921,2.96527l0,9.15497l-2.49392,0l0,-9.21509c0,-1.13853 -0.32892,-2.17083 -1.25119,-2.89201c-0.97042,-0.75854 -2.21228,-0.99203 -3.41735,-0.99203l-2.35412,0c-1.37873,0 -2.80679,0.28456 -3.84521,1.25498c-0.73402,0.6777 -1.1254,1.50423 -1.1254,2.50822l0,9.33592l-2.49421,0l0,-15.2308l2.49421,0l0,1.89911l0,-0.00003zm34.1362,11.9466l0,5.34011l-2.49421,0l0,-19.1858l2.49421,0l0,1.38515c0.20109,-0.20167 0.41998,-0.39167 0.65901,-0.54577c0.99932,-0.6272 2.18075,-0.83938 3.34556,-0.83938l6.03648,0c1.84454,0 3.76174,0.39955 5.0678,1.80222c1.0679,1.16101 1.43097,2.67049 1.43097,4.21354l0,3.25975c0,1.59179 -0.36686,3.17978 -1.52524,4.33787c-1.29526,1.31978 -3.19496,1.67759 -4.97353,1.67759l-5.85523,0c-1.21588,0 -2.45131,-0.21948 -3.49703,-0.87003c-0.24983,-0.16081 -0.47893,-0.36336 -0.68878,-0.57525l-0.00001,0zm21.8516,-12.3231c0.1325,-0.18971 0.28456,-0.37241 0.46084,-0.51921c0.9284,-0.78189 2.18221,-1.0034 3.36307,-1.0034l4.2255,0c1.6557,0 3.35081,0.34235 4.63206,1.45783c1.30431,1.13007 1.86642,2.61095 1.86642,4.31627l0,0.58313l-2.49392,0l0,-0.34148c0,-0.79735 -0.17715,-1.55998 -0.60823,-2.23708c-0.8172,-1.25878 -2.17579,-1.64695 -3.60764,-1.64695l-3.8636,0c-1.06236,0 -2.02899,0.29595 -2.83714,1.00165c-0.7095,0.61962 -1.13737,1.38253 -1.13737,2.33894l0,9.75853l-2.49392,0l0,-15.2308l2.49392,0l0,1.52262l0.00001,-0.00005zm17.517,4.43272c0,-1.58507 0.37212,-3.15497 1.52583,-4.30898c1.34634,-1.34634 3.32016,-1.70678 5.1539,-1.70678l5.97606,0c1.86876,0 3.88929,0.37416 5.21782,1.80134c1.08717,1.15634 1.46191,2.66174 1.46191,4.21441l0,3.25946c0,1.57253 -0.39313,3.07705 -1.49256,4.24564c-1.3478,1.41959 -3.29944,1.83053 -5.18717,1.83053l-5.97606,0c-1.74385,0 -3.68674,-0.30878 -5.01352,-1.53663c-1.27396,-1.17881 -1.66621,-2.86078 -1.66621,-4.53954l0,-3.25946l0,0.00001zm29.9255,6.60034l0.26092,0l6.76057,-12.5557l2.78256,0l-8.41715,15.2308l-2.51318,0l-8.41715,-15.2308l2.78256,0l6.76087,12.5557zm43.522,0.24137l0.22152,0l5.49333,-12.7971l2.61591,0l-7.58507,17.0967c-0.28281,0.64383 -0.6488,1.40675 -1.09067,2.08911l-3.1252,0c0.2008,-0.09486 0.39255,-0.21335 0.57146,-0.36103c0.76933,-0.63421 1.6522,-2.61212 2.07685,-3.59393l-0.3946,0l-8.35557,-15.2308l2.63021,0l6.94182,12.7971l0.00001,-0.00005zm-112.937,-5.15303l0.12054,1.62827c0,1.03901 0.27522,2.01352 1.03347,2.75571c0.90096,0.88403 2.18484,1.13153 3.40393,1.13153l4.83928,0c1.1972,0 2.62817,-0.16986 3.5983,-0.9319c0.91205,-0.71622 1.17093,-1.84454 1.17093,-2.95213l0,-3.25975c0,-1.12102 -0.28865,-2.20118 -1.20157,-2.92266c-0.97743,-0.77255 -2.35791,-0.96138 -3.56766,-0.96138l-4.80922,0c-1.17589,0 -2.4767,0.21452 -3.36015,1.05711c-0.79882,0.76233 -1.10701,1.74647 -1.10731,2.83335l-0.12054,1.62185zm41.9833,1.57077c0,2.8386 1.64636,3.94474 4.3367,3.94474l5.67428,0c1.1327,0 2.31413,-0.22123 3.20138,-0.97306c0.87878,-0.74569 1.13532,-1.86409 1.13532,-2.97169l0,-3.25946c0,-1.08804 -0.27347,-2.13552 -1.10876,-2.88384c-0.8744,-0.78363 -2.0897,-1.00019 -3.22794,-1.00019l-5.67428,0c-1.11022,0 -2.40548,0.17454 -3.27551,0.92665c-0.84638,0.73198 -1.06119,1.89182 -1.06119,2.95739l0,3.25946z" class="fil0" id="_120687424"/>
    <path d="m180.817,22.1732l0,-15.2308l2.49392,0l0,15.2308l-2.49392,0zm0,-21.2673l2.49392,0l0,2.49392l-2.49392,0l0,-2.49392zm6.82099,8.10779l-1.87139,0l0,-2.13172l1.87139,0l0,-2.89756l2.49392,0l0,2.89756l11.2581,0l0,2.13172l-11.2581,0l0,7.68693c0,0.93161 0.21043,1.86409 0.8887,2.54266c0.58459,0.58459 1.33992,0.79794 2.15011,0.79794l2.89756,0c1.24915,0 2.81817,-0.20839 3.61406,-1.29351c0.50842,-0.67799 0.60211,-1.76778 0.60211,-2.59052l0,-0.34118l2.49392,0l0,0.58283c0,1.2687 -0.2653,2.5269 -1.02704,3.56562c-1.27658,1.74326 -3.4264,2.20877 -5.47173,2.20877l-3.10886,0c-1.50541,0 -2.98832,-0.35694 -4.0822,-1.45053c-1.14058,-1.14058 -1.45053,-2.80066 -1.45053,-4.35421l0,-7.35479l-0.00002,-0.00001z" class="fil1" id="_120694384"/>
    <g fill="white" id="svg_2">
     <path stroke="#eb8d1c" fill="none" d="m58.7663,30.8131c0.39226,0.04115 0.7311,0.08785 1.01595,0.14038c0.28514,0.05254 0.52038,0.12696 0.70629,0.22356c0.18533,0.09632 0.3228,0.22211 0.41181,0.37679c0.08873,0.15469 0.13338,0.35461 0.13338,0.60006c0,0.19292 -0.03123,0.37416 -0.09427,0.54373c-0.06245,0.16928 -0.1789,0.3152 -0.34935,0.43778c-0.16986,0.12288 -0.40393,0.21919 -0.70192,0.28923c-0.29798,0.07034 -0.68265,0.10507 -1.15342,0.10507c-0.44479,0 -0.83821,-0.04232 -1.18085,-0.12696c-0.34234,-0.08493 -0.63916,-0.18241 -0.89016,-0.29331l0,-0.61378c0.10974,0.05254 0.23173,0.1039 0.36482,0.15352c0.13338,0.04962 0.28369,0.09339 0.45121,0.13163c0.16724,0.03765 0.35548,0.07004 0.56475,0.09631c0.20926,0.02627 0.44449,0.0394 0.70571,0.0394c0.36628,0 0.6593,-0.02189 0.87907,-0.06567c0.21977,-0.04407 0.38846,-0.10244 0.50608,-0.17511c0.11762,-0.07326 0.19321,-0.15352 0.22736,-0.24137c0.03414,-0.08755 0.05078,-0.1754 0.05078,-0.26267c0,-0.10507 -0.0181,-0.19438 -0.05458,-0.26734c-0.03648,-0.07326 -0.1109,-0.13571 -0.22356,-0.18825c-0.11266,-0.05253 -0.27493,-0.09806 -0.48682,-0.136c-0.21189,-0.03824 -0.49265,-0.0718 -0.84317,-0.10069c-0.32951,-0.03532 -0.62895,-0.07618 -0.89834,-0.12288c-0.26938,-0.04669 -0.49937,-0.11382 -0.69053,-0.20167c-0.19088,-0.08756 -0.33826,-0.20547 -0.44304,-0.3549c-0.10478,-0.14855 -0.15673,-0.3403 -0.15673,-0.57379c0,-0.16373 0.01956,-0.32571 0.05867,-0.48652c0.0391,-0.16082 0.13337,-0.30353 0.28222,-0.42932c0.14972,-0.1255 0.37037,-0.22649 0.6631,-0.30208c0.29273,-0.07617 0.69083,-0.11411 1.19253,-0.11411c0.43428,0 0.82479,0.03064 1.17297,0.09222c0.34789,0.061 0.62107,0.1328 0.81953,0.21423l0,0.63099c-0.13016,-0.03473 -0.26267,-0.0715 -0.39605,-0.10915c-0.13308,-0.03823 -0.27843,-0.07326 -0.43545,-0.10507c-0.15702,-0.0324 -0.3295,-0.0572 -0.51775,-0.07501c-0.18825,-0.01722 -0.40014,-0.02597 -0.63508,-0.02597c-0.33009,0 -0.59772,0.01313 -0.80407,0.0394c-0.20692,0.02627 -0.3692,0.06567 -0.48681,0.1182c-0.11733,0.05253 -0.1973,0.11674 -0.23933,0.19292c-0.04203,0.07559 -0.06246,0.16344 -0.06246,0.26267c0,0.12287 0.02043,0.22064 0.06246,0.2939c0.04203,0.07267 0.11908,0.13279 0.23115,0.17949c0.11266,0.0467 0.26968,0.08493 0.47106,0.11382c0.20109,0.02948 0.4588,0.06129 0.77284,0.09632zm6.15205,-1.91896c0.49645,0 0.89541,0.05983 1.19632,0.17949c0.30119,0.11995 0.53351,0.28631 0.69841,0.49937c0.16461,0.21364 0.27464,0.46317 0.32951,0.74949c0.05457,0.28631 0.0823,0.59626 0.0823,0.92898c0,0.32133 -0.02773,0.62048 -0.0823,0.89833c-0.05487,0.27756 -0.16607,0.51834 -0.33389,0.72293c-0.16694,0.2043 -0.40334,0.36482 -0.7095,0.48186c-0.30587,0.11674 -0.71301,0.17511 -1.21996,0.17511c-0.49703,0 -0.89571,-0.05837 -1.19661,-0.17511c-0.3009,-0.11704 -0.53351,-0.27756 -0.69812,-0.48186c-0.1649,-0.20459 -0.27493,-0.44537 -0.32951,-0.72293c-0.05516,-0.27785 -0.08259,-0.577 -0.08259,-0.89833c0,-0.33272 0.02743,-0.64267 0.08259,-0.92898c0.05458,-0.28632 0.16607,-0.53585 0.3333,-0.74949c0.16724,-0.21306 0.40393,-0.37942 0.7098,-0.49937c0.30616,-0.11966 0.713,-0.17949 1.22025,-0.17949zm-0.03152,4.02237c0.37124,0 0.66981,-0.04232 0.89425,-0.12696c0.22531,-0.08493 0.39809,-0.20167 0.51775,-0.35052c0.12054,-0.14914 0.19876,-0.32571 0.23582,-0.5306c0.03648,-0.2043 0.05458,-0.42903 0.05458,-0.67448c0,-0.25158 -0.01722,-0.48215 -0.05079,-0.69228c-0.03414,-0.21014 -0.10827,-0.39313 -0.22356,-0.54782c-0.11528,-0.15468 -0.28368,-0.27434 -0.50608,-0.35927c-0.2221,-0.08464 -0.52184,-0.12696 -0.89833,-0.12696c-0.38671,0 -0.69258,0.04349 -0.91789,0.13133c-0.22503,0.08756 -0.39489,0.20722 -0.50988,0.35899c-0.11528,0.15235 -0.1897,0.33476 -0.22385,0.54781c-0.03386,0.21364 -0.05078,0.44275 -0.05078,0.6882c0,0.24545 0.01692,0.47018 0.05078,0.67448c0.03415,0.20489 0.11032,0.38146 0.22765,0.5306c0.11761,0.14885 0.28602,0.26559 0.50608,0.35052c0.21976,0.08464 0.51775,0.12696 0.89425,0.12696zm4.14378,-4.1362c0,-0.2224 0.03414,-0.42786 0.10215,-0.61786c0.06771,-0.19 0.16869,-0.35344 0.30178,-0.49091c0.13338,-0.13717 0.29419,-0.24399 0.48273,-0.31987c0.18825,-0.07588 0.40509,-0.11412 0.65113,-0.11412c0.22473,0 0.42991,0.01664 0.61582,0.04845c0.18562,0.03181 0.32571,0.06567 0.41969,0.10098l-0.01576,0.61319c-0.10478,-0.04086 -0.24224,-0.07617 -0.41152,-0.10506c-0.17044,-0.02948 -0.33885,-0.04378 -0.50608,-0.04378c-0.3403,0 -0.59276,0.08464 -0.75766,0.25391c-0.16461,0.16928 -0.2472,0.39168 -0.2472,0.66631l0,0.51688l1.48322,0l0,0.61348l-1.48322,0l0,3.584l-0.63508,0l0,-4.70561l0,0.00001zm4.15925,3.0143c0,0.40889 0.07821,0.6952 0.23553,0.85864c0.15672,0.16402 0.42611,0.24545 0.80786,0.24545c0.13629,0 0.27201,-0.007 0.40772,-0.02159c0.1363,-0.01489 0.2618,-0.03094 0.37708,-0.04845c0.13571,-0.02306 0.26384,-0.04962 0.38408,-0.07851l0,0.58721c-0.10974,0.03473 -0.23115,0.06538 -0.36482,0.09165c-0.13309,0.02626 -0.26938,0.04699 -0.40772,0.06129c-0.13863,0.01459 -0.27318,0.0248 -0.40422,0.03064c-0.13076,0.00584 -0.24867,0.00876 -0.35315,0.00876c-0.19846,0 -0.37883,-0.03765 -0.5411,-0.11383c-0.16228,-0.07559 -0.30033,-0.18416 -0.41561,-0.32396c-0.11528,-0.14038 -0.2043,-0.30703 -0.26705,-0.49936c-0.06304,-0.19321 -0.09398,-0.40627 -0.09398,-0.63975l0,-2.65531c0,-0.4267 0.01956,-0.79794 0.05867,-1.11314c0.03911,-0.31579 0.08756,-0.61641 0.14505,-0.90243l0.43166,0l0,1.656l2.12618,0l0,0.58722l-2.12618,0l0,2.26948l0,-0.00001zm9.98822,-2.8567l0.72176,0l-1.81973,4.54801l-0.80027,0l-1.06674,-2.90952l-0.12579,-0.45559l-0.11821,0.45559l-1.12131,2.90952l-0.72205,0l-1.73363,-4.54801l0.72176,0l1.23952,3.46142l0.15673,0.55219l0.15731,-0.54315l1.05098,-2.85728l0.76116,0l1.05915,2.85728l0.14885,0.55191l0.1649,-0.54315l1.32561,-3.47923l0,0.00001zm1.82936,3.19846c0,-0.30937 0.07179,-0.55074 0.21568,-0.72293c0.14418,-0.17249 0.3333,-0.3082 0.56912,-0.40743c0.13046,-0.05254 0.27318,-0.09778 0.42757,-0.13572c0.1541,-0.03794 0.34381,-0.06742 0.56854,-0.08785c0.22502,-0.02013 0.4944,-0.03502 0.80815,-0.04377c0.31374,-0.00876 0.69549,-0.01314 1.14583,-0.01314l0,-0.24545c0,-0.16344 -0.02539,-0.30674 -0.07501,-0.42903c-0.04961,-0.12287 -0.13367,-0.22531 -0.25129,-0.30674c-0.11732,-0.08201 -0.27318,-0.14184 -0.46668,-0.17949c-0.19321,-0.03853 -0.43399,-0.05721 -0.72176,-0.05721c-0.21977,0 -0.41298,0.00992 -0.58021,0.03065c-0.16782,0.02043 -0.32221,0.04669 -0.46347,0.07909c-0.14067,0.03181 -0.27405,0.06975 -0.39955,0.11382c-0.12579,0.04378 -0.25392,0.09194 -0.38467,0.14447l0,-0.6307c0.21422,-0.11149 0.48244,-0.19759 0.80407,-0.25859c0.32162,-0.06158 0.67886,-0.09222 1.07111,-0.09222c0.45471,0 0.82012,0.04494 1.09417,0.136c0.27493,0.09019 0.48681,0.21014 0.63537,0.35928c0.14943,0.14885 0.24779,0.3225 0.29448,0.52125c0.04699,0.19876 0.07034,0.40598 0.07034,0.62195l0,2.55025c-0.26646,0.11704 -0.56737,0.22065 -0.90184,0.31112c-0.33505,0.09077 -0.73226,0.13571 -1.19253,0.13571c-0.41881,0 -0.77254,-0.03356 -1.06323,-0.10069c-0.28981,-0.06683 -0.52417,-0.16198 -0.7022,-0.28456c-0.17745,-0.12287 -0.30616,-0.2688 -0.38438,-0.43807c-0.07851,-0.16987 -0.11762,-0.35957 -0.11762,-0.57l0.00001,0zm2.29078,0.78013c0.16752,0 0.31783,-0.00584 0.45121,-0.0178c0.13367,-0.01168 0.25596,-0.02598 0.36861,-0.04349c0.11266,-0.0178 0.2186,-0.03969 0.31813,-0.06567c0.09923,-0.02656 0.20138,-0.05428 0.30615,-0.08318l0,-1.36735c-0.68557,0 -1.23222,0.01576 -1.64024,0.04816c-0.40772,0.03211 -0.72059,0.08026 -0.93744,0.14476c-0.21714,0.06421 -0.35928,0.15031 -0.42757,0.25859c-0.068,0.10798 -0.10215,0.23494 -0.10215,0.38116c0,0.11091 0.0286,0.21189 0.08639,0.30207c0.0575,0.09048 0.15177,0.16957 0.28281,0.2367c0.13017,0.06742 0.30178,0.1182 0.51367,0.15352c0.21189,0.03473 0.47193,0.05253 0.78042,0.05253l0.00001,0zm3.90038,-2.65531c0,-0.4909 0.12666,-0.84872 0.38058,-1.07345c0.25333,-0.22502 0.60268,-0.33768 1.04689,-0.33768c0.13629,0 0.2653,0.00467 0.38846,0.01343c0.12316,0.00875 0.22911,0.01897 0.31783,0.03064c0.10478,0.01722 0.19876,0.03211 0.28252,0.04378l-0.01547,0.61319c-0.08931,-0.01167 -0.18037,-0.02597 -0.27464,-0.04348c-0.07851,-0.01197 -0.16635,-0.02189 -0.26296,-0.03065c-0.0969,-0.00905 -0.18971,-0.01313 -0.27843,-0.01313c-0.31404,0 -0.55073,0.05954 -0.71038,0.17949c-0.15935,0.11966 -0.23903,0.33739 -0.23903,0.65288l0,3.1897l-0.63537,0l0,-3.22473l0,0.00001zm5.88529,-1.36706c0.33972,0 0.64821,0.04086 0.92577,0.12287c0.27697,0.08143 0.51366,0.20839 0.70979,0.38088c0.19642,0.17219 0.34644,0.387 0.45092,0.64442c0.10478,0.25683 0.15702,0.56065 0.15702,0.91117c0,0.08756 -0.00263,0.18125 -0.00817,0.28048c-0.00467,0.09923 -0.01255,0.18416 -0.02306,0.2542l-3.88345,0c0.01051,0.2043 0.04582,0.39255 0.10595,0.56504c0.06012,0.1722 0.15293,0.32279 0.27872,0.4515c0.12521,0.12842 0.28981,0.2294 0.49382,0.30207c0.20372,0.07326 0.46026,0.10974 0.76875,0.10974c0.24078,0 0.46814,-0.01605 0.68266,-0.04845c0.2148,-0.03181 0.41064,-0.07004 0.58838,-0.11382c0.17803,-0.04378 0.33388,-0.08902 0.46697,-0.13571c0.13309,-0.0467 0.2367,-0.08756 0.30995,-0.12287l0,0.61377c-0.07325,0.03502 -0.17278,0.07559 -0.29857,0.12229c-0.1252,0.04699 -0.27551,0.09223 -0.45062,0.1363c-0.17512,0.04377 -0.37154,0.08142 -0.58839,0.11382c-0.21743,0.0321 -0.4515,0.04786 -0.7025,0.04786c-0.40247,0 -0.7489,-0.05078 -1.0393,-0.15322c-0.2904,-0.10215 -0.52855,-0.25392 -0.71388,-0.45588c-0.18562,-0.20138 -0.32163,-0.45092 -0.40802,-0.74891c-0.08639,-0.29798 -0.12958,-0.63975 -0.12958,-1.02529c0,-0.38583 0.0537,-0.72001 0.1611,-1.0037c0.10712,-0.28339 0.26151,-0.51717 0.4626,-0.70074c0.20138,-0.18417 0.44362,-0.32163 0.72555,-0.41181c0.28252,-0.09106 0.6021,-0.13601 0.95759,-0.13601zm1.63148,1.92771c0,-0.17511 -0.0324,-0.34176 -0.09748,-0.49937c-0.06567,-0.1576 -0.1649,-0.29623 -0.29857,-0.41618c-0.13338,-0.11966 -0.30353,-0.21627 -0.50988,-0.28894c-0.20692,-0.07326 -0.44858,-0.10974 -0.72555,-0.10974c-0.30353,0 -0.56124,0.03356 -0.77284,0.10069c-0.21189,0.06742 -0.38438,0.16052 -0.51805,0.28048c-0.13308,0.11966 -0.22998,0.26442 -0.2901,0.43369c-0.06042,0.16957 -0.09019,0.35665 -0.09019,0.56095l3.30265,0l0,-0.06158l0.00001,0zm6.65405,2.70785c-0.47602,0 -0.86419,-0.05954 -1.1648,-0.17949c-0.30091,-0.11966 -0.53469,-0.28631 -0.7025,-0.49937c-0.16724,-0.21334 -0.28252,-0.46317 -0.34498,-0.74949c-0.06275,-0.28602 -0.09456,-0.59597 -0.09456,-0.92898c0,-0.32104 0.03006,-0.62078 0.09018,-0.89804c0.06071,-0.27756 0.17424,-0.51834 0.34148,-0.72322c0.16752,-0.2043 0.39896,-0.36482 0.69432,-0.48157c0.29536,-0.11674 0.67624,-0.1754 1.14174,-0.1754c0.251,0 0.46639,0.0143 0.64734,0.04378c0.18037,0.02918 0.33827,0.07033 0.47456,0.12287c0.13572,0.05253 0.25333,0.11499 0.35286,0.18825c0.09923,0.07325 0.19087,0.15351 0.27463,0.24078l0,-2.2079l0.63567,0l0,3.89045c0,0.33884 -0.03152,0.65171 -0.09427,0.93803c-0.06304,0.28602 -0.1792,0.53468 -0.34935,0.74482c-0.16986,0.21013 -0.40802,0.37532 -0.71359,0.49498c-0.30616,0.11996 -0.7025,0.1795 -1.18873,0.1795zm-0.04728,-4.02208c-0.33447,0 -0.60678,0.04232 -0.81545,0.12696c-0.20926,0.08493 -0.37416,0.20167 -0.4947,0.35052c-0.12024,0.14914 -0.20226,0.32571 -0.2472,0.5303c-0.04436,0.2043 -0.06625,0.42933 -0.06625,0.67478c0,0.25099 0.02101,0.48156 0.06245,0.69228c0.04174,0.21014 0.12317,0.39313 0.24312,0.54782c0.12054,0.15468 0.29069,0.27434 0.50987,0.35927c0.21977,0.08464 0.50784,0.12696 0.86332,0.12696c0.36599,0 0.65989,-0.04378 0.88257,-0.13163c0.2224,-0.08726 0.39372,-0.20721 0.51367,-0.35927c0.12025,-0.15177 0.20138,-0.33418 0.24341,-0.54782c0.04174,-0.21305 0.06275,-0.44216 0.06275,-0.68761c0,-0.24545 -0.02481,-0.47048 -0.07442,-0.67478c-0.04962,-0.20459 -0.1401,-0.38116 -0.27114,-0.5303c-0.13017,-0.14885 -0.30937,-0.26559 -0.53731,-0.35052c-0.22736,-0.08464 -0.51863,-0.12696 -0.87469,-0.12696zm6.45033,-0.61348c0.34001,0 0.6485,0.04086 0.92606,0.12287c0.27639,0.08143 0.51367,0.20839 0.70979,0.38087c0.19584,0.1722 0.34585,0.38701 0.45063,0.64442c0.10478,0.25684 0.15731,0.56066 0.15731,0.91118c0,0.08756 -0.00292,0.18124 -0.00817,0.28047c-0.00496,0.09924 -0.01284,0.18417 -0.02335,0.25421l-3.88374,0c0.01051,0.2043 0.04641,0.39255 0.10653,0.56504c0.05954,0.17219 0.15264,0.32279 0.27814,0.4515c0.12521,0.12842 0.2904,0.2294 0.49441,0.30207c0.20371,0.07326 0.46025,0.10974 0.76875,0.10974c0.24078,0 0.46784,-0.01605 0.68265,-0.04845c0.21451,-0.03181 0.41064,-0.07004 0.58838,-0.11382c0.17804,-0.04378 0.3333,-0.08902 0.46668,-0.13572c0.13338,-0.04669 0.2367,-0.08755 0.31025,-0.12287l0,0.61378c-0.07355,0.03502 -0.17278,0.07559 -0.29857,0.12229c-0.12521,0.04698 -0.27552,0.09222 -0.45092,0.13629c-0.17541,0.04378 -0.37124,0.08143 -0.58839,0.11383c-0.21714,0.0321 -0.45121,0.04786 -0.7022,0.04786c-0.40248,0 -0.7492,-0.05078 -1.0393,-0.15322c-0.2904,-0.10215 -0.52856,-0.25392 -0.71389,-0.45588c-0.1862,-0.20139 -0.32191,-0.45092 -0.4086,-0.74891c-0.08609,-0.29799 -0.12929,-0.63975 -0.12929,-1.02529c0,-0.38583 0.0537,-0.72001 0.16081,-1.0037c0.1077,-0.28339 0.26209,-0.51717 0.46318,-0.70075c0.20138,-0.18416 0.44304,-0.32162 0.72556,-0.41181c0.28251,-0.09106 0.60151,-0.136 0.95729,-0.136zm1.63177,1.92771c0,-0.17512 -0.03298,-0.34177 -0.09807,-0.49937c-0.06567,-0.1576 -0.1646,-0.29623 -0.29828,-0.41619c-0.13337,-0.11966 -0.30323,-0.21626 -0.50987,-0.28893c-0.20663,-0.07326 -0.44858,-0.10974 -0.72556,-0.10974c-0.30323,0 -0.56124,0.03356 -0.77312,0.10069c-0.21189,0.06742 -0.38409,0.16052 -0.51776,0.28047c-0.13279,0.11966 -0.22998,0.26442 -0.2901,0.4337c-0.06013,0.16957 -0.09048,0.35665 -0.09048,0.56095l3.30324,0l0,-0.06158zm5.87712,-1.88394l0.72964,0l-1.90612,4.54801l-0.76875,0l-2.10254,-4.54801l0.72964,0l1.56056,3.47047l0.197,0.5341c0.0574,-0.17803 0.1148,-0.35607 0.1722,-0.5341l1.38836,-3.47047l0.00001,0zm4.27745,-0.04378c0.33972,0 0.64821,0.04086 0.92547,0.12287c0.27698,0.08143 0.51367,0.20839 0.71009,0.38088c0.19642,0.17219 0.34644,0.387 0.45092,0.64442c0.10478,0.25683 0.15673,0.56065 0.15673,0.91117c0,0.08756 -0.00234,0.18125 -0.00788,0.28048c-0.00467,0.09923 -0.01255,0.18416 -0.02306,0.2542l-3.88345,0c0.01051,0.2043 0.04582,0.39255 0.10595,0.56504c0.05983,0.17219 0.15293,0.32279 0.27843,0.4515c0.12549,0.12842 0.2901,0.2294 0.49411,0.30207c0.20372,0.07326 0.46026,0.10974 0.76875,0.10974c0.24078,0 0.46814,-0.01605 0.68265,-0.04845c0.21423,-0.03181 0.41065,-0.07004 0.58839,-0.11382c0.17774,-0.04378 0.33388,-0.08902 0.46668,-0.13571c0.13308,-0.0467 0.23699,-0.08756 0.31024,-0.12288l0,0.61378c-0.07325,0.03502 -0.17278,0.07559 -0.29857,0.12229c-0.12521,0.04699 -0.2758,0.09222 -0.45063,0.13629c-0.17511,0.04378 -0.37153,0.08143 -0.58838,0.11383c-0.21743,0.0321 -0.4515,0.04786 -0.7025,0.04786c-0.40276,0 -0.7489,-0.05078 -1.0393,-0.15322c-0.29069,-0.10215 -0.52855,-0.25392 -0.71388,-0.45588c-0.18591,-0.20138 -0.32163,-0.45092 -0.40802,-0.74891c-0.08639,-0.29798 -0.12958,-0.63975 -0.12958,-1.02529c0,-0.38583 0.0537,-0.72001 0.1611,-1.0037c0.10711,-0.28339 0.26122,-0.51717 0.4626,-0.70075c0.20138,-0.18416 0.44362,-0.32162 0.72555,-0.41181c0.28252,-0.09106 0.6021,-0.136 0.95759,-0.136zm1.63148,1.92771c0,-0.17511 -0.0324,-0.34176 -0.09778,-0.49937c-0.06537,-0.1576 -0.1646,-0.29623 -0.29827,-0.41618c-0.13338,-0.11967 -0.30354,-0.21627 -0.50988,-0.28894c-0.20693,-0.07326 -0.44858,-0.10974 -0.72555,-0.10974c-0.30354,0 -0.56125,0.03356 -0.77313,0.10069c-0.21189,0.06742 -0.38409,0.16052 -0.51776,0.28047c-0.13338,0.11967 -0.22998,0.26443 -0.2901,0.4337c-0.06042,0.16957 -0.09019,0.35665 -0.09019,0.56095l3.30265,0l0,-0.06158l0.00001,0zm2.45714,-3.53993l0.63508,0l0,6.204l-0.63508,0l0,-6.204zm4.79433,1.61222c0.49703,0 0.896,0.05983 1.19632,0.17949c0.30119,0.11996 0.5338,0.28631 0.6987,0.49937c0.1649,0.21364 0.27464,0.46318 0.32922,0.74949c0.05487,0.28631 0.0823,0.59626 0.0823,0.92898c0,0.32133 -0.02743,0.62049 -0.0823,0.89834c-0.05458,0.27755 -0.16607,0.51833 -0.33331,0.72293c-0.16752,0.2043 -0.40393,0.36482 -0.71008,0.48185c-0.30587,0.11674 -0.71243,0.17512 -1.21967,0.17512c-0.49733,0 -0.896,-0.05838 -1.19691,-0.17512c-0.30062,-0.11703 -0.53323,-0.27755 -0.69813,-0.48185c-0.16489,-0.2046 -0.27463,-0.44538 -0.3295,-0.72293c-0.05516,-0.27785 -0.0823,-0.57701 -0.0823,-0.89834c0,-0.33272 0.02714,-0.64267 0.0823,-0.92898c0.05487,-0.28631 0.16636,-0.53585 0.3333,-0.74949c0.16782,-0.21306 0.40422,-0.37941 0.71038,-0.49937c0.30557,-0.11966 0.71242,-0.17949 1.21967,-0.17949l0.00001,0zm-0.03094,4.02237c0.37066,0 0.66923,-0.04232 0.89396,-0.12696c0.22502,-0.08493 0.3978,-0.20167 0.51804,-0.35052c0.12025,-0.14914 0.19817,-0.32571 0.23524,-0.53059c0.03648,-0.2043 0.05516,-0.42903 0.05516,-0.67448c0,-0.25159 -0.01722,-0.48215 -0.05137,-0.69229c-0.03356,-0.21014 -0.10827,-0.39313 -0.22356,-0.54781c-0.11528,-0.15469 -0.28368,-0.27435 -0.50608,-0.35928c-0.2221,-0.08464 -0.52155,-0.12696 -0.89833,-0.12696c-0.38671,0 -0.69258,0.04349 -0.9176,0.13134c-0.22532,0.08755 -0.39459,0.20722 -0.50988,0.35898c-0.11528,0.15235 -0.18999,0.33476 -0.22356,0.54782c-0.03444,0.21364 -0.05136,0.44274 -0.05136,0.6882c0,0.24545 0.01692,0.47018 0.05136,0.67448c0.03357,0.20488 0.10974,0.38145 0.22736,0.53059c0.11762,0.14885 0.28631,0.26559 0.50608,0.35052c0.21977,0.08464 0.51775,0.12696 0.89454,0.12696zm6.44216,-4.02237c0.47573,0 0.86419,0.05983 1.1648,0.17949c0.3009,0.11996 0.53468,0.28631 0.70221,0.49937c0.16752,0.21364 0.28251,0.46318 0.34526,0.74949c0.06246,0.28631 0.09427,0.59626 0.09427,0.92898c0,0.32133 -0.03181,0.62049 -0.09427,0.89834c-0.06275,0.27755 -0.1792,0.51833 -0.34876,0.72293c-0.17045,0.2043 -0.40831,0.36482 -0.71418,0.48185c-0.30616,0.11674 -0.70221,0.17512 -1.18844,0.17512c-0.25129,0 -0.46318,-0.0146 -0.63595,-0.04378c-0.17249,-0.0289 -0.32163,-0.07005 -0.44684,-0.12258c-0.12579,-0.05254 -0.23407,-0.11529 -0.32571,-0.18825c-0.09164,-0.07326 -0.1792,-0.15352 -0.26267,-0.24108l0,2.26072l-0.63566,0l0,-3.94328c0,-0.33884 0.03152,-0.65142 0.09426,-0.93773c0.06305,-0.28631 0.17891,-0.53468 0.34907,-0.74482c0.16986,-0.21014 0.4083,-0.37533 0.71388,-0.49528c0.30586,-0.11966 0.7025,-0.17949 1.18873,-0.17949zm-0.03152,4.02237c0.35052,0 0.63683,-0.04232 0.85923,-0.12696c0.22181,-0.08493 0.39575,-0.20167 0.52154,-0.35052c0.12579,-0.14914 0.21014,-0.32571 0.25509,-0.53059c0.04465,-0.2043 0.06654,-0.42903 0.06654,-0.67448c0,-0.25159 -0.02101,-0.48215 -0.06275,-0.69229c-0.04144,-0.21014 -0.12316,-0.39313 -0.24282,-0.54781c-0.12083,-0.15469 -0.29099,-0.27435 -0.50988,-0.35928c-0.21977,-0.08464 -0.50783,-0.12696 -0.86331,-0.12696c-0.36628,0 -0.66018,0.04349 -0.88287,0.13134c-0.22239,0.08755 -0.39459,0.20722 -0.51746,0.35898c-0.12316,0.15235 -0.2043,0.33476 -0.24341,0.54782c-0.0394,0.21364 -0.05866,0.44274 -0.05866,0.6882c0,0.24545 0.02101,0.47018 0.06246,0.67448c0.04202,0.20488 0.12316,0.38145 0.2434,0.53059c0.12025,0.14885 0.2904,0.26559 0.50988,0.35052c0.21947,0.08464 0.50725,0.12696 0.86302,0.12696zm5.60278,-4.02237c0.36073,0 0.65142,0.05545 0.8709,0.16665c0.21948,0.11091 0.39226,0.23962 0.51775,0.38525l0.03152,0c0.08348,-0.08726 0.1687,-0.16519 0.2548,-0.23202c0.08668,-0.06713 0.18153,-0.1255 0.28631,-0.17512c0.10477,-0.04961 0.22473,-0.0861 0.36102,-0.10974c0.1363,-0.02364 0.29799,-0.03502 0.48624,-0.03502c0.27201,0 0.51162,0.04203 0.71797,0.12696c0.20692,0.08464 0.38058,0.20021 0.52184,0.34614c0.14126,0.14622 0.24837,0.31696 0.32162,0.51279c0.07297,0.19584 0.11003,0.40189 0.11003,0.61786l0,2.98803l-0.63566,0l0,-2.88296c0,-0.2043 -0.03094,-0.37678 -0.09398,-0.51717c-0.06304,-0.14038 -0.14388,-0.25245 -0.24341,-0.33738c-0.09981,-0.08464 -0.21159,-0.14593 -0.33709,-0.18358c-0.12579,-0.03853 -0.25158,-0.0572 -0.37708,-0.0572c-0.34469,0 -0.61028,0.07442 -0.79619,0.22356c-0.18533,0.14884 -0.27814,0.38671 -0.27814,0.71417l0,3.04057l-0.63566,0l0,-3.04057c0,-0.32746 -0.09953,-0.56533 -0.29857,-0.71417c-0.19817,-0.14914 -0.47018,-0.22356 -0.81545,-0.22356c-0.12054,0 -0.23962,0.01867 -0.35723,0.0572c-0.11733,0.03765 -0.22619,0.1004 -0.32542,0.18825c-0.09953,0.08726 -0.1795,0.20138 -0.23962,0.34176c-0.05954,0.1398 -0.08989,0.31521 -0.08989,0.52564l0,2.86545l-0.63537,0l0,-2.86545c0,-0.23349 0.03268,-0.45559 0.09835,-0.66602c0.06509,-0.21014 0.16578,-0.3943 0.30178,-0.5519c0.13601,-0.15761 0.30966,-0.28223 0.52184,-0.37241c0.21189,-0.09106 0.46376,-0.13601 0.75679,-0.13601zm8.42737,0c0.34001,0 0.6485,0.04086 0.92577,0.12287c0.27697,0.08143 0.51337,0.20839 0.71038,0.38088c0.19583,0.17219 0.34585,0.387 0.45033,0.64442c0.10478,0.25683 0.15731,0.56065 0.15731,0.91117c0,0.08756 -0.00291,0.18125 -0.00788,0.28048c-0.00525,0.09923 -0.01313,0.18416 -0.02364,0.2542l-3.88345,0c0.01051,0.2043 0.04612,0.39255 0.10624,0.56504c0.05983,0.17219 0.15264,0.32279 0.27843,0.4515c0.12521,0.12842 0.2904,0.2294 0.49412,0.30207c0.204,0.07326 0.46025,0.10974 0.76875,0.10974c0.24107,0 0.46784,-0.01605 0.68265,-0.04845c0.21451,-0.03181 0.41035,-0.07004 0.58867,-0.11382c0.17745,-0.04378 0.33331,-0.08902 0.46639,-0.13571c0.13338,-0.0467 0.2367,-0.08756 0.31025,-0.12288l0,0.61378c-0.07355,0.03502 -0.17278,0.07559 -0.29828,0.12229c-0.12521,0.04699 -0.27581,0.09222 -0.45121,0.13629c-0.17512,0.04378 -0.37095,0.08143 -0.58839,0.11383c-0.21685,0.0321 -0.45092,0.04786 -0.70191,0.04786c-0.40277,0 -0.74949,-0.05078 -1.03959,-0.15322c-0.2904,-0.10215 -0.52826,-0.25392 -0.71359,-0.45588c-0.18621,-0.20138 -0.32221,-0.45092 -0.4086,-0.74891c-0.08639,-0.29798 -0.12959,-0.63975 -0.12959,-1.02529c0,-0.38583 0.0537,-0.72001 0.16111,-1.0037c0.1074,-0.28339 0.26179,-0.51717 0.46317,-0.70075c0.20139,-0.18416 0.44304,-0.32162 0.72556,-0.41181c0.28252,-0.09106 0.60152,-0.136 0.957,-0.136zm1.63177,1.92771c0,-0.17511 -0.03269,-0.34176 -0.09777,-0.49937c-0.06567,-0.1576 -0.1649,-0.29623 -0.29857,-0.41618c-0.13338,-0.11967 -0.30295,-0.21627 -0.50988,-0.28894c-0.20634,-0.07326 -0.44858,-0.10974 -0.72555,-0.10974c-0.30295,0 -0.56124,0.03356 -0.77284,0.10069c-0.21189,0.06742 -0.38438,0.16052 -0.51805,0.28047c-0.13308,0.11967 -0.22998,0.26443 -0.2901,0.4337c-0.06012,0.16957 -0.09019,0.35665 -0.09019,0.56095l3.30294,0l0,-0.06158l0.00001,0zm4.5124,-1.92771c0.41881,0 0.77429,0.03911 1.06674,0.1182c0.29302,0.0791 0.53089,0.20022 0.71388,0.36366c0.18329,0.16344 0.31637,0.37124 0.40014,0.62194c0.08405,0.25158 0.12579,0.54957 0.12579,0.89425l0,2.59373l-0.63567,0l0,-2.57622c0,-0.30966 -0.0429,-0.55657 -0.12958,-0.74044c-0.0861,-0.18416 -0.20489,-0.32425 -0.35665,-0.42086c-0.15177,-0.09631 -0.3298,-0.15877 -0.53351,-0.18824c-0.20401,-0.02919 -0.42115,-0.0467 -0.65114,-0.05254c-0.21977,0 -0.42903,0.01459 -0.62749,0.04349c-0.19875,0.02948 -0.37416,0.09223 -0.52593,0.18854c-0.15176,0.0966 -0.27201,0.23815 -0.36102,0.42523c-0.08873,0.18679 -0.1328,0.43516 -0.1328,0.74482l0,2.57622l-0.63595,0l0,-2.58498c0,-0.35052 0.04202,-0.65142 0.12549,-0.903c0.08377,-0.25071 0.21685,-0.45851 0.40014,-0.62195c0.18299,-0.16344 0.41882,-0.28456 0.70629,-0.36365c0.28807,-0.0791 0.638,-0.1182 1.05127,-0.1182zm4.71612,2.90047c0,0.40889 0.07822,0.6952 0.23553,0.85864c0.15672,0.16403 0.42611,0.24546 0.80786,0.24546c0.13629,0 0.27201,-0.00701 0.40772,-0.0216c0.1363,-0.01489 0.2618,-0.03094 0.37679,-0.04845c0.136,-0.02306 0.26442,-0.04962 0.38437,-0.07851l0,0.58722c-0.10944,0.03473 -0.23115,0.06537 -0.36482,0.09164c-0.13308,0.02627 -0.26938,0.04699 -0.40772,0.06129c-0.13863,0.01459 -0.27318,0.02481 -0.40422,0.03064c-0.13075,0.00584 -0.24837,0.00876 -0.35315,0.00876c-0.19846,0 -0.37883,-0.03765 -0.5411,-0.11382c-0.16227,-0.0756 -0.30032,-0.18417 -0.41561,-0.32397c-0.11528,-0.14038 -0.2043,-0.30703 -0.26705,-0.49936c-0.06304,-0.19321 -0.09397,-0.40627 -0.09397,-0.63975l0,-2.65531c0,-0.4267 0.01984,-0.79794 0.05866,-1.11314c0.03911,-0.31579 0.08756,-0.6164 0.14505,-0.90242l0.43166,0l0,1.656l2.12618,0l0,0.58721l-2.12618,0l0,2.26948l0,-0.00001zm8.13668,-2.90047c0.40831,0 0.76758,0.0321 1.0787,0.09631c0.31141,0.0645 0.58167,0.13747 0.81194,0.21919l0,0.62194c-0.26675,-0.09923 -0.55306,-0.17832 -0.85922,-0.23669c-0.30558,-0.05808 -0.65464,-0.08727 -1.04689,-0.08727c-0.37154,0 -0.66952,0.03473 -0.89454,0.10507c-0.22503,0.07005 -0.39751,0.17395 -0.51776,0.31083c-0.12024,0.13746 -0.19963,0.3082 -0.23932,0.51308c-0.0394,0.2043 -0.05866,0.44071 -0.05866,0.7098c0,0.30353 0.02101,0.56679 0.06245,0.7886c0.04203,0.22181 0.122,0.40597 0.23962,0.5519c0.11732,0.14622 0.28514,0.2542 0.50199,0.32454c0.21714,0.06976 0.49791,0.10507 0.84318,0.10507c0.21977,0 0.43282,-0.01605 0.63916,-0.04845c0.20693,-0.03181 0.39664,-0.07121 0.56913,-0.11791c0.17248,-0.04669 0.32454,-0.09398 0.455,-0.14038c0.13075,-0.0467 0.2329,-0.08756 0.30587,-0.12287l0,0.62253c-0.07297,0.03502 -0.18037,0.07559 -0.32134,0.12229c-0.14126,0.04699 -0.30207,0.09222 -0.48273,0.13629c-0.18037,0.04378 -0.37153,0.08143 -0.57291,0.11383c-0.2008,0.0321 -0.39605,0.04786 -0.5843,0.04786c-0.40276,0 -0.74891,-0.04378 -1.03959,-0.13104c-0.2904,-0.08785 -0.52768,-0.22648 -0.71359,-0.41648c-0.18591,-0.18971 -0.32163,-0.43516 -0.40831,-0.73607c-0.0861,-0.3009 -0.12929,-0.66747 -0.12929,-1.09972c0,-0.3975 0.04319,-0.73752 0.12929,-1.02092c0.08668,-0.28339 0.22385,-0.51717 0.4121,-0.70133c0.18825,-0.18387 0.43283,-0.31841 0.73344,-0.40305c0.30061,-0.08493 0.66281,-0.12696 1.08658,-0.12696l0,0.00001z" class="fil2" id="_120705424"/>
     <path stroke="#eb8d1c" fill="none" d="m177.475,28.8941c0.49674,0 0.89571,0.05983 1.19632,0.17949c0.3012,0.11996 0.53381,0.28631 0.69841,0.49937c0.1649,0.21364 0.27493,0.46318 0.32922,0.74949c0.05516,0.28631 0.0823,0.59626 0.0823,0.92898c0,0.32133 -0.02714,0.62049 -0.0823,0.89834c-0.05429,0.27755 -0.16548,0.51833 -0.3333,0.72293c-0.16694,0.2043 -0.40364,0.36482 -0.70951,0.48185c-0.30615,0.11674 -0.713,0.17512 -1.22025,0.17512c-0.49703,0 -0.89541,-0.05838 -1.19691,-0.17512c-0.30032,-0.11703 -0.53293,-0.27755 -0.69753,-0.48185c-0.1649,-0.2046 -0.27493,-0.44538 -0.33009,-0.72293c-0.05458,-0.27785 -0.08231,-0.57701 -0.08231,-0.89834c0,-0.33272 0.02773,-0.64267 0.08231,-0.92898c0.05516,-0.28631 0.16635,-0.53585 0.33388,-0.74949c0.16723,-0.21306 0.40393,-0.37941 0.7098,-0.49937c0.30615,-0.11966 0.713,-0.17949 1.21996,-0.17949zm-0.03123,4.02237c0.37124,0 0.66952,-0.04232 0.89396,-0.12696c0.22531,-0.08493 0.39809,-0.20167 0.51804,-0.35052c0.12054,-0.14914 0.19876,-0.32571 0.23582,-0.53059c0.03619,-0.2043 0.05458,-0.42903 0.05458,-0.67449c0,-0.25158 -0.01722,-0.48214 -0.05078,-0.69228c-0.03415,-0.21014 -0.10858,-0.39313 -0.22357,-0.54782c-0.11528,-0.15468 -0.28397,-0.27434 -0.50608,-0.35927c-0.22239,-0.08464 -0.52184,-0.12696 -0.89833,-0.12696c-0.3873,0 -0.69316,0.04349 -0.91818,0.13134c-0.22473,0.08755 -0.3946,0.20722 -0.50988,0.35898c-0.11499,0.15235 -0.18941,0.33476 -0.22356,0.54782c-0.03415,0.21363 -0.05137,0.44274 -0.05137,0.68819c0,0.24546 0.01722,0.47019 0.05137,0.67449c0.03415,0.20488 0.11003,0.38145 0.22736,0.53059c0.11791,0.14885 0.28631,0.26559 0.50608,0.35052c0.22006,0.08464 0.51804,0.12696 0.89454,0.12696zm5.60278,-4.02237c0.36073,0 0.65113,0.05545 0.8709,0.16665c0.21947,0.11091 0.39225,0.23962 0.51804,0.38525l0.03094,0c0.08376,-0.08726 0.16869,-0.16519 0.25479,-0.23202c0.08668,-0.06713 0.18212,-0.1255 0.28661,-0.17512c0.10477,-0.04961 0.22502,-0.0861 0.36073,-0.10974c0.1363,-0.02364 0.29828,-0.03502 0.48682,-0.03502c0.27201,0 0.51133,0.04203 0.71797,0.12696c0.20663,0.08464 0.38029,0.20021 0.52154,0.34614c0.14126,0.14622 0.24837,0.31696 0.32163,0.51279c0.07296,0.19584 0.11003,0.40189 0.11003,0.61786l0,2.98803l-0.63566,0l0,-2.88296c0,-0.2043 -0.03153,-0.37678 -0.09398,-0.51717c-0.06304,-0.14038 -0.14389,-0.25245 -0.24341,-0.33738c-0.09952,-0.08464 -0.21189,-0.14593 -0.33768,-0.18358c-0.1255,-0.03853 -0.2507,-0.0572 -0.37649,-0.0572c-0.34498,0 -0.61028,0.07442 -0.79619,0.22356c-0.18533,0.14884 -0.27872,0.38671 -0.27872,0.71417l0,3.04057l-0.63538,0l0,-3.04057c0,-0.32746 -0.09923,-0.56533 -0.29827,-0.71417c-0.19818,-0.14914 -0.47077,-0.22356 -0.81574,-0.22356c-0.12025,0 -0.23904,0.01867 -0.35695,0.0572c-0.11761,0.03765 -0.22618,0.1004 -0.32571,0.18825c-0.09923,0.08726 -0.17891,0.20138 -0.23903,0.34176c-0.05983,0.1398 -0.09018,0.31521 -0.09018,0.52564l0,2.86545l-0.63538,0l0,-2.86545c0,-0.23349 0.03269,-0.45559 0.09836,-0.66602c0.06508,-0.21014 0.16548,-0.3943 0.30178,-0.5519c0.13601,-0.15761 0.30966,-0.28223 0.52155,-0.37241c0.21189,-0.09106 0.46405,-0.13601 0.75708,-0.13601zm8.6629,0c0.47572,0 0.86419,0.05983 1.1648,0.17949c0.3009,0.11996 0.53468,0.28631 0.70221,0.49937c0.16752,0.21364 0.28251,0.46318 0.34526,0.74949c0.06246,0.28631 0.09398,0.59626 0.09398,0.92898c0,0.32133 -0.03152,0.62049 -0.09398,0.89834c-0.06275,0.27755 -0.1792,0.51833 -0.34906,0.72293c-0.17015,0.2043 -0.4086,0.36482 -0.71417,0.48185c-0.30587,0.11674 -0.70192,0.17512 -1.18873,0.17512c-0.25071,0 -0.4626,-0.0146 -0.63538,-0.04378c-0.17248,-0.0289 -0.32162,-0.07005 -0.44683,-0.12258c-0.12579,-0.05254 -0.23407,-0.11529 -0.32571,-0.18825c-0.09164,-0.07326 -0.1792,-0.15352 -0.26267,-0.24108l0,2.26072l-0.63567,0l0,-3.94328c0,-0.33884 0.03152,-0.65142 0.09398,-0.93773c0.06334,-0.28631 0.1792,-0.53468 0.34936,-0.74482c0.16986,-0.21014 0.40772,-0.37533 0.71388,-0.49528c0.30586,-0.11966 0.70221,-0.17949 1.18873,-0.17949zm-0.03152,4.02237c0.35052,0 0.63683,-0.04232 0.85922,-0.12696c0.22181,-0.08493 0.39576,-0.20167 0.52155,-0.35052c0.12579,-0.14914 0.21014,-0.32571 0.25508,-0.53059c0.04466,-0.2043 0.06655,-0.42903 0.06655,-0.67449c0,-0.25158 -0.02102,-0.48214 -0.06275,-0.69228c-0.04203,-0.21014 -0.12317,-0.39313 -0.24341,-0.54782c-0.12025,-0.15468 -0.2904,-0.27434 -0.50987,-0.35927c-0.21948,-0.08464 -0.50725,-0.12696 -0.86303,-0.12696c-0.36598,0 -0.66018,0.04349 -0.88257,0.13134c-0.2224,0.08755 -0.39459,0.20722 -0.51775,0.35898c-0.12288,0.15235 -0.20401,0.33476 -0.24312,0.54782c-0.0394,0.21363 -0.05866,0.44274 -0.05866,0.68819c0,0.24546 0.02101,0.47019 0.06245,0.67449c0.04174,0.20488 0.12317,0.38145 0.24312,0.53059c0.12054,0.14885 0.29069,0.26559 0.51017,0.35052c0.21947,0.08464 0.50724,0.12696 0.86302,0.12696zm3.767,-0.78013c0,-0.30937 0.07179,-0.55074 0.21568,-0.72293c0.14418,-0.17249 0.3333,-0.3082 0.56883,-0.40744c0.13075,-0.05253 0.27318,-0.09777 0.42728,-0.13571c0.15439,-0.03794 0.34439,-0.06742 0.56912,-0.08785c0.22473,-0.02014 0.49411,-0.03502 0.80815,-0.04378c0.31375,-0.00875 0.69549,-0.01313 1.14525,-0.01313l0,-0.24545c0,-0.16344 -0.02481,-0.30674 -0.07442,-0.42903c-0.04962,-0.12287 -0.13367,-0.22532 -0.25129,-0.30674c-0.11733,-0.08202 -0.27318,-0.14185 -0.46668,-0.1795c-0.19321,-0.03852 -0.43399,-0.0572 -0.72147,-0.0572c-0.22006,0 -0.41327,0.00992 -0.58109,0.03065c-0.16723,0.02043 -0.32162,0.04669 -0.46288,0.07909c-0.14097,0.03181 -0.27406,0.06975 -0.39956,0.11382c-0.12579,0.04378 -0.25391,0.09194 -0.38466,0.14447l0,-0.6307c0.21422,-0.11149 0.48244,-0.19759 0.80406,-0.25859c0.32163,-0.06158 0.67886,-0.09222 1.07111,-0.09222c0.45472,0 0.81954,0.04494 1.09417,0.136c0.27493,0.09019 0.48682,0.21014 0.63538,0.35928c0.14943,0.14884 0.2472,0.3225 0.29448,0.52125c0.04699,0.19876 0.07063,0.40598 0.07063,0.62195l0,2.55025c-0.26676,0.11704 -0.56766,0.22064 -0.90213,0.31112c-0.33505,0.09077 -0.73227,0.13571 -1.19253,0.13571c-0.41882,0 -0.77255,-0.03356 -1.06323,-0.10069c-0.2904,-0.06683 -0.52447,-0.16198 -0.70221,-0.28456c-0.17774,-0.12287 -0.30616,-0.2688 -0.38437,-0.43808c-0.07851,-0.16986 -0.11762,-0.35956 -0.11762,-0.56999zm2.29078,0.78013c0.16752,0 0.31783,-0.00584 0.45121,-0.0178c0.13308,-0.01168 0.25596,-0.02598 0.36861,-0.04349c0.11266,-0.0178 0.2186,-0.03969 0.31783,-0.06567c0.09953,-0.02656 0.20139,-0.05428 0.30587,-0.08318l0,-1.36735c-0.68499,0 -1.23164,0.01576 -1.63965,0.04816c-0.40831,0.0321 -0.72059,0.08026 -0.93744,0.14476c-0.21715,0.06421 -0.35928,0.15031 -0.42757,0.25859c-0.06801,0.10798 -0.10215,0.23494 -0.10215,0.38116c0,0.11091 0.0286,0.21189 0.08639,0.30207c0.05749,0.09048 0.15176,0.16957 0.28251,0.2367c0.13046,0.06742 0.30178,0.1182 0.51367,0.15352c0.2116,0.03473 0.47223,0.05253 0.78072,0.05253zm6.01867,-4.02237c0.41823,0 0.77371,0.03911 1.06674,0.1182c0.29273,0.0791 0.53088,0.20022 0.71388,0.36366c0.18328,0.16344 0.31637,0.37124 0.40013,0.62194c0.08406,0.25158 0.1255,0.54957 0.1255,0.89425l0,2.59373l-0.63537,0l0,-2.57622c0,-0.30966 -0.0429,-0.55657 -0.12958,-0.74044c-0.0861,-0.18416 -0.20518,-0.32425 -0.35695,-0.42086c-0.15176,-0.09631 -0.3295,-0.15877 -0.53322,-0.18824c-0.2043,-0.02919 -0.42115,-0.0467 -0.65113,-0.05254c-0.21977,0 -0.42932,0.01459 -0.62749,0.04349c-0.19905,0.02948 -0.37416,0.09223 -0.52593,0.18854c-0.15177,0.0966 -0.27201,0.23815 -0.36103,0.42523c-0.08872,0.18679 -0.13338,0.43516 -0.13338,0.74482l0,2.57622l-0.63566,0l0,-2.58498c0,-0.35052 0.04203,-0.65142 0.12579,-0.903c0.08376,-0.25071 0.21685,-0.45851 0.40014,-0.62195c0.18299,-0.16344 0.41881,-0.28456 0.70629,-0.36365c0.28748,-0.0791 0.638,-0.1182 1.05127,-0.1182zm4.84949,6.30061c0.07821,-0.09339 0.15672,-0.1865 0.23523,-0.28047c0.07881,-0.09311 0.15819,-0.20109 0.23933,-0.32396c0.08113,-0.12288 0.1646,-0.26735 0.25099,-0.4337c0.08639,-0.16665 0.17658,-0.36949 0.27114,-0.60911l-2.27532,-4.60959l0.72964,0l1.60025,3.38262l0.21948,0.63975l0.03181,0l0.19584,-0.63975l1.34925,-3.38262l0.72993,0l-1.90641,4.54801l-0.36862,0.94679c-0.05253,0.13396 -0.1182,0.27142 -0.19642,0.41151c-0.07851,0.14039 -0.17015,0.25713 -0.27434,0.35052l-0.83179,0l0.00001,0z" class="fil2" id="_120696064"/>
    </g>
   </g>
  </g>
 </g>
</svg>